<mxfile host="Electron" agent="Mozilla/5.0 (Windows NT 10.0; Win64; x64) AppleWebKit/537.36 (KHTML, like Gecko) draw.io/24.7.8 Chrome/128.0.6613.36 Electron/32.0.1 Safari/537.36" version="24.7.8">
  <diagram id="C5RBs43oDa-KdzZeNtuy" name="Page-1">
    <mxGraphModel dx="1195" dy="737" grid="1" gridSize="10" guides="1" tooltips="1" connect="1" arrows="1" fold="1" page="1" pageScale="1" pageWidth="827" pageHeight="1169" math="0" shadow="0">
      <root>
        <mxCell id="WIyWlLk6GJQsqaUBKTNV-0" />
        <mxCell id="WIyWlLk6GJQsqaUBKTNV-1" parent="WIyWlLk6GJQsqaUBKTNV-0" />
        <mxCell id="owIgP6GizsIObHhbwHTk-3" style="edgeStyle=orthogonalEdgeStyle;rounded=0;orthogonalLoop=1;jettySize=auto;html=1;exitX=0.5;exitY=1;exitDx=0;exitDy=0;exitPerimeter=0;entryX=0.5;entryY=0;entryDx=0;entryDy=0;" edge="1" parent="WIyWlLk6GJQsqaUBKTNV-1" target="owIgP6GizsIObHhbwHTk-1">
          <mxGeometry relative="1" as="geometry">
            <mxPoint x="414" y="80" as="sourcePoint" />
          </mxGeometry>
        </mxCell>
        <mxCell id="owIgP6GizsIObHhbwHTk-54" style="edgeStyle=orthogonalEdgeStyle;rounded=0;orthogonalLoop=1;jettySize=auto;html=1;exitX=0.5;exitY=1;exitDx=0;exitDy=0;entryX=0.5;entryY=0;entryDx=0;entryDy=0;" edge="1" parent="WIyWlLk6GJQsqaUBKTNV-1" source="owIgP6GizsIObHhbwHTk-1" target="owIgP6GizsIObHhbwHTk-4">
          <mxGeometry relative="1" as="geometry">
            <mxPoint x="414" y="210" as="targetPoint" />
          </mxGeometry>
        </mxCell>
        <mxCell id="owIgP6GizsIObHhbwHTk-1" value="&lt;div&gt;&lt;br&gt;&lt;/div&gt;Seleccionar el modelo a comentar" style="html=1;strokeWidth=2;shape=manualInput;whiteSpace=wrap;rounded=1;size=26;arcSize=11;" vertex="1" parent="WIyWlLk6GJQsqaUBKTNV-1">
          <mxGeometry x="364" y="110" width="100" height="78" as="geometry" />
        </mxCell>
        <mxCell id="owIgP6GizsIObHhbwHTk-77" style="edgeStyle=orthogonalEdgeStyle;rounded=0;orthogonalLoop=1;jettySize=auto;html=1;exitX=0.5;exitY=1;exitDx=0;exitDy=0;entryX=0.5;entryY=0;entryDx=0;entryDy=0;" edge="1" parent="WIyWlLk6GJQsqaUBKTNV-1" source="owIgP6GizsIObHhbwHTk-4" target="owIgP6GizsIObHhbwHTk-76">
          <mxGeometry relative="1" as="geometry" />
        </mxCell>
        <mxCell id="owIgP6GizsIObHhbwHTk-4" value="Habilitar cuadro de texto para la entrada del usuario" style="rounded=1;whiteSpace=wrap;html=1;absoluteArcSize=1;arcSize=14;strokeWidth=2;" vertex="1" parent="WIyWlLk6GJQsqaUBKTNV-1">
          <mxGeometry x="364" y="230" width="100" height="100" as="geometry" />
        </mxCell>
        <mxCell id="owIgP6GizsIObHhbwHTk-51" value="Fin" style="strokeWidth=2;html=1;shape=mxgraph.flowchart.terminator;whiteSpace=wrap;" vertex="1" parent="WIyWlLk6GJQsqaUBKTNV-1">
          <mxGeometry x="364" y="1300" width="100" height="60" as="geometry" />
        </mxCell>
        <mxCell id="owIgP6GizsIObHhbwHTk-62" value="Verificar que no se exceda el límite de caracteres" style="rounded=1;whiteSpace=wrap;html=1;absoluteArcSize=1;arcSize=14;strokeWidth=2;" vertex="1" parent="WIyWlLk6GJQsqaUBKTNV-1">
          <mxGeometry x="364" y="470" width="100" height="100" as="geometry" />
        </mxCell>
        <mxCell id="owIgP6GizsIObHhbwHTk-68" value="Almacenar comentario en la base de datos" style="rounded=1;whiteSpace=wrap;html=1;absoluteArcSize=1;arcSize=14;strokeWidth=2;" vertex="1" parent="WIyWlLk6GJQsqaUBKTNV-1">
          <mxGeometry x="364" y="860" width="100" height="100" as="geometry" />
        </mxCell>
        <mxCell id="owIgP6GizsIObHhbwHTk-70" style="edgeStyle=orthogonalEdgeStyle;rounded=0;orthogonalLoop=1;jettySize=auto;html=1;exitX=0.5;exitY=1;exitDx=0;exitDy=0;entryX=0.5;entryY=0;entryDx=0;entryDy=0;" edge="1" parent="WIyWlLk6GJQsqaUBKTNV-1" source="owIgP6GizsIObHhbwHTk-93" target="owIgP6GizsIObHhbwHTk-101">
          <mxGeometry relative="1" as="geometry" />
        </mxCell>
        <mxCell id="owIgP6GizsIObHhbwHTk-100" value="Sí" style="edgeLabel;html=1;align=center;verticalAlign=middle;resizable=0;points=[];" vertex="1" connectable="0" parent="owIgP6GizsIObHhbwHTk-70">
          <mxGeometry x="-0.26" relative="1" as="geometry">
            <mxPoint as="offset" />
          </mxGeometry>
        </mxCell>
        <mxCell id="owIgP6GizsIObHhbwHTk-74" style="edgeStyle=orthogonalEdgeStyle;rounded=0;orthogonalLoop=1;jettySize=auto;html=1;exitX=0;exitY=0.5;exitDx=0;exitDy=0;exitPerimeter=0;entryX=1;entryY=0.5;entryDx=0;entryDy=0;" edge="1" parent="WIyWlLk6GJQsqaUBKTNV-1" source="owIgP6GizsIObHhbwHTk-71" target="owIgP6GizsIObHhbwHTk-73">
          <mxGeometry relative="1" as="geometry" />
        </mxCell>
        <mxCell id="owIgP6GizsIObHhbwHTk-75" value="Sí" style="edgeLabel;html=1;align=center;verticalAlign=middle;resizable=0;points=[];" vertex="1" connectable="0" parent="owIgP6GizsIObHhbwHTk-74">
          <mxGeometry x="0.1139" y="2" relative="1" as="geometry">
            <mxPoint as="offset" />
          </mxGeometry>
        </mxCell>
        <mxCell id="owIgP6GizsIObHhbwHTk-83" style="edgeStyle=orthogonalEdgeStyle;rounded=0;orthogonalLoop=1;jettySize=auto;html=1;exitX=0.5;exitY=1;exitDx=0;exitDy=0;exitPerimeter=0;entryX=0.5;entryY=0;entryDx=0;entryDy=0;" edge="1" parent="WIyWlLk6GJQsqaUBKTNV-1" source="owIgP6GizsIObHhbwHTk-71" target="owIgP6GizsIObHhbwHTk-82">
          <mxGeometry relative="1" as="geometry" />
        </mxCell>
        <mxCell id="owIgP6GizsIObHhbwHTk-85" value="No" style="edgeLabel;html=1;align=center;verticalAlign=middle;resizable=0;points=[];" vertex="1" connectable="0" parent="owIgP6GizsIObHhbwHTk-83">
          <mxGeometry x="-0.18" y="-2" relative="1" as="geometry">
            <mxPoint as="offset" />
          </mxGeometry>
        </mxCell>
        <mxCell id="owIgP6GizsIObHhbwHTk-71" value="¿Se excedió el límite?" style="strokeWidth=2;html=1;shape=mxgraph.flowchart.decision;whiteSpace=wrap;" vertex="1" parent="WIyWlLk6GJQsqaUBKTNV-1">
          <mxGeometry x="364" y="600" width="100" height="100" as="geometry" />
        </mxCell>
        <mxCell id="owIgP6GizsIObHhbwHTk-72" style="edgeStyle=orthogonalEdgeStyle;rounded=0;orthogonalLoop=1;jettySize=auto;html=1;exitX=0.5;exitY=1;exitDx=0;exitDy=0;entryX=0.5;entryY=0;entryDx=0;entryDy=0;entryPerimeter=0;" edge="1" parent="WIyWlLk6GJQsqaUBKTNV-1" source="owIgP6GizsIObHhbwHTk-62" target="owIgP6GizsIObHhbwHTk-71">
          <mxGeometry relative="1" as="geometry" />
        </mxCell>
        <mxCell id="owIgP6GizsIObHhbwHTk-79" style="edgeStyle=orthogonalEdgeStyle;rounded=0;orthogonalLoop=1;jettySize=auto;html=1;exitX=0.5;exitY=0;exitDx=0;exitDy=0;entryX=0;entryY=0.5;entryDx=0;entryDy=0;" edge="1" parent="WIyWlLk6GJQsqaUBKTNV-1" source="owIgP6GizsIObHhbwHTk-86" target="owIgP6GizsIObHhbwHTk-76">
          <mxGeometry relative="1" as="geometry" />
        </mxCell>
        <mxCell id="owIgP6GizsIObHhbwHTk-73" value="Mostrar mensaje de error, se excedió el límite de caracteres." style="rounded=1;whiteSpace=wrap;html=1;absoluteArcSize=1;arcSize=14;strokeWidth=2;" vertex="1" parent="WIyWlLk6GJQsqaUBKTNV-1">
          <mxGeometry x="160" y="600" width="100" height="100" as="geometry" />
        </mxCell>
        <mxCell id="owIgP6GizsIObHhbwHTk-78" style="edgeStyle=orthogonalEdgeStyle;rounded=0;orthogonalLoop=1;jettySize=auto;html=1;exitX=0.5;exitY=1;exitDx=0;exitDy=0;entryX=0.5;entryY=0;entryDx=0;entryDy=0;" edge="1" parent="WIyWlLk6GJQsqaUBKTNV-1" source="owIgP6GizsIObHhbwHTk-76" target="owIgP6GizsIObHhbwHTk-62">
          <mxGeometry relative="1" as="geometry" />
        </mxCell>
        <mxCell id="owIgP6GizsIObHhbwHTk-76" value="&lt;div&gt;&lt;/div&gt;&lt;div&gt;&lt;br&gt;&lt;/div&gt;&lt;div&gt;Escribir el comentario&lt;/div&gt;" style="html=1;strokeWidth=2;shape=manualInput;whiteSpace=wrap;rounded=1;size=26;arcSize=11;" vertex="1" parent="WIyWlLk6GJQsqaUBKTNV-1">
          <mxGeometry x="364" y="360" width="100" height="78" as="geometry" />
        </mxCell>
        <mxCell id="owIgP6GizsIObHhbwHTk-84" style="edgeStyle=orthogonalEdgeStyle;rounded=0;orthogonalLoop=1;jettySize=auto;html=1;exitX=0.5;exitY=1;exitDx=0;exitDy=0;" edge="1" parent="WIyWlLk6GJQsqaUBKTNV-1" source="owIgP6GizsIObHhbwHTk-82" target="owIgP6GizsIObHhbwHTk-68">
          <mxGeometry relative="1" as="geometry" />
        </mxCell>
        <mxCell id="owIgP6GizsIObHhbwHTk-82" value="&lt;div&gt;&lt;/div&gt;&lt;div&gt;&lt;br&gt;&lt;/div&gt;&lt;div&gt;Hacer click en &quot;enviar comentario&quot;&lt;/div&gt;" style="html=1;strokeWidth=2;shape=manualInput;whiteSpace=wrap;rounded=1;size=26;arcSize=11;" vertex="1" parent="WIyWlLk6GJQsqaUBKTNV-1">
          <mxGeometry x="364" y="750" width="100" height="78" as="geometry" />
        </mxCell>
        <mxCell id="owIgP6GizsIObHhbwHTk-87" style="edgeStyle=orthogonalEdgeStyle;rounded=0;orthogonalLoop=1;jettySize=auto;html=1;exitX=0;exitY=0.5;exitDx=0;exitDy=0;exitPerimeter=0;entryX=0;entryY=0.5;entryDx=0;entryDy=0;" edge="1" parent="WIyWlLk6GJQsqaUBKTNV-1" source="owIgP6GizsIObHhbwHTk-86" target="owIgP6GizsIObHhbwHTk-82">
          <mxGeometry relative="1" as="geometry">
            <Array as="points">
              <mxPoint x="140" y="485" />
              <mxPoint x="140" y="789" />
            </Array>
          </mxGeometry>
        </mxCell>
        <mxCell id="owIgP6GizsIObHhbwHTk-89" value="" style="edgeStyle=orthogonalEdgeStyle;rounded=0;orthogonalLoop=1;jettySize=auto;html=1;exitX=0.5;exitY=0;exitDx=0;exitDy=0;entryX=0.5;entryY=1;entryDx=0;entryDy=0;entryPerimeter=0;" edge="1" parent="WIyWlLk6GJQsqaUBKTNV-1" source="owIgP6GizsIObHhbwHTk-73" target="owIgP6GizsIObHhbwHTk-86">
          <mxGeometry relative="1" as="geometry">
            <mxPoint x="210" y="600" as="sourcePoint" />
            <mxPoint x="364" y="399" as="targetPoint" />
          </mxGeometry>
        </mxCell>
        <mxCell id="owIgP6GizsIObHhbwHTk-86" value="" style="verticalLabelPosition=bottom;verticalAlign=top;html=1;shape=mxgraph.flowchart.summing_function;" vertex="1" parent="WIyWlLk6GJQsqaUBKTNV-1">
          <mxGeometry x="175" y="450" width="70" height="70" as="geometry" />
        </mxCell>
        <mxCell id="owIgP6GizsIObHhbwHTk-94" value="" style="edgeStyle=orthogonalEdgeStyle;rounded=0;orthogonalLoop=1;jettySize=auto;html=1;exitX=0.5;exitY=1;exitDx=0;exitDy=0;entryX=0.5;entryY=0;entryDx=0;entryDy=0;entryPerimeter=0;" edge="1" parent="WIyWlLk6GJQsqaUBKTNV-1" source="owIgP6GizsIObHhbwHTk-68" target="owIgP6GizsIObHhbwHTk-93">
          <mxGeometry relative="1" as="geometry">
            <mxPoint x="414" y="960" as="sourcePoint" />
            <mxPoint x="414" y="1100" as="targetPoint" />
          </mxGeometry>
        </mxCell>
        <mxCell id="owIgP6GizsIObHhbwHTk-96" style="edgeStyle=orthogonalEdgeStyle;rounded=0;orthogonalLoop=1;jettySize=auto;html=1;exitX=0;exitY=0.5;exitDx=0;exitDy=0;exitPerimeter=0;entryX=1;entryY=0.5;entryDx=0;entryDy=0;" edge="1" parent="WIyWlLk6GJQsqaUBKTNV-1" source="owIgP6GizsIObHhbwHTk-93" target="owIgP6GizsIObHhbwHTk-95">
          <mxGeometry relative="1" as="geometry" />
        </mxCell>
        <mxCell id="owIgP6GizsIObHhbwHTk-98" value="No" style="edgeLabel;html=1;align=center;verticalAlign=middle;resizable=0;points=[];" vertex="1" connectable="0" parent="owIgP6GizsIObHhbwHTk-96">
          <mxGeometry x="-0.1047" y="-2" relative="1" as="geometry">
            <mxPoint as="offset" />
          </mxGeometry>
        </mxCell>
        <mxCell id="owIgP6GizsIObHhbwHTk-93" value="¿Se guardó el comentario correctamente?" style="strokeWidth=2;html=1;shape=mxgraph.flowchart.decision;whiteSpace=wrap;" vertex="1" parent="WIyWlLk6GJQsqaUBKTNV-1">
          <mxGeometry x="346" y="980" width="136" height="100" as="geometry" />
        </mxCell>
        <mxCell id="owIgP6GizsIObHhbwHTk-99" style="edgeStyle=orthogonalEdgeStyle;rounded=0;orthogonalLoop=1;jettySize=auto;html=1;exitX=0.5;exitY=0;exitDx=0;exitDy=0;entryX=0;entryY=0.5;entryDx=0;entryDy=0;" edge="1" parent="WIyWlLk6GJQsqaUBKTNV-1" source="owIgP6GizsIObHhbwHTk-95" target="owIgP6GizsIObHhbwHTk-82">
          <mxGeometry relative="1" as="geometry" />
        </mxCell>
        <mxCell id="owIgP6GizsIObHhbwHTk-95" value="Mostrar mensaje de error al guardar comentario" style="rounded=1;whiteSpace=wrap;html=1;absoluteArcSize=1;arcSize=14;strokeWidth=2;" vertex="1" parent="WIyWlLk6GJQsqaUBKTNV-1">
          <mxGeometry x="160" y="980" width="100" height="100" as="geometry" />
        </mxCell>
        <mxCell id="owIgP6GizsIObHhbwHTk-101" value="Mostrar mensaje de comentario enviado correctamente" style="rounded=1;whiteSpace=wrap;html=1;absoluteArcSize=1;arcSize=14;strokeWidth=2;" vertex="1" parent="WIyWlLk6GJQsqaUBKTNV-1">
          <mxGeometry x="364" y="1130" width="100" height="100" as="geometry" />
        </mxCell>
        <mxCell id="owIgP6GizsIObHhbwHTk-102" style="edgeStyle=orthogonalEdgeStyle;rounded=0;orthogonalLoop=1;jettySize=auto;html=1;exitX=0.5;exitY=1;exitDx=0;exitDy=0;entryX=0.5;entryY=0;entryDx=0;entryDy=0;entryPerimeter=0;" edge="1" parent="WIyWlLk6GJQsqaUBKTNV-1" source="owIgP6GizsIObHhbwHTk-101" target="owIgP6GizsIObHhbwHTk-51">
          <mxGeometry relative="1" as="geometry" />
        </mxCell>
        <mxCell id="owIgP6GizsIObHhbwHTk-103" value="Inicio" style="strokeWidth=2;html=1;shape=mxgraph.flowchart.terminator;whiteSpace=wrap;" vertex="1" parent="WIyWlLk6GJQsqaUBKTNV-1">
          <mxGeometry x="364" y="30" width="100" height="60" as="geometry" />
        </mxCell>
      </root>
    </mxGraphModel>
  </diagram>
</mxfile>
